name rise42.5664peak47.7979fall81.9185.mot
datacolumns 19
datarows 33
range 6.14331100000000 6.19664600000000
endheader
time	ground_force1_vx	ground_force1_vy	ground_force1_vz	ground_force1_px	ground_force1_py	ground_force1_pz	ground_force2_vx	ground_force2_vy	ground_force2_vz	ground_force2_px	ground_force2_py	ground_force2_pz	ground_torque1_x	ground_torque1_y	ground_torque1_z	ground_torque2_x	ground_torque2_y	ground_torque2_z	
6.14331100000000	63.24505100000000	777.64222099999995	55.53536600000000	0.28515300000000	0.00000000000000	0.08449400000000	0.43242500000000	3.40817900000000	0.36903200000000	0.00000000000000	0.00000000000000	0.00000000000000	0.00000000000000	20.31575800000000	0.00000000000000	0.00000000000000	0.06997600000000	0.00000000000000	
6.14497800000000	62.80450900000000	780.59939999999995	55.64987800000000	0.28451500000000	0.00000000000000	0.08445300000000	0.00000000000000	0.00000000000000	0.00000000000000	0.00000000000000	0.00000000000000	0.00000000000000	0.00000000000000	20.33800400000000	0.00000000000000	0.00000000000000	0.00000000000000	0.00000000000000	
6.14663900000000	62.35357600000000	783.38989700000002	55.75708200000000	0.28387300000000	0.00000000000000	0.08441100000000	0.00000000000000	0.00000000000000	0.00000000000000	0.00000000000000	0.00000000000000	0.00000000000000	0.00000000000000	20.35789900000000	0.00000000000000	0.00000000000000	0.00000000000000	0.00000000000000	
6.14831400000000	61.89281200000000	786.01262899999995	55.85697900000000	0.28322800000000	0.00000000000000	0.08437000000000	0.00000000000000	0.00000000000000	0.00000000000000	0.00000000000000	0.00000000000000	0.00000000000000	0.00000000000000	20.37543800000000	0.00000000000000	0.00000000000000	0.00000000000000	0.00000000000000	
6.14998100000000	61.42274900000000	788.46670900000004	55.94952100000000	0.28257700000000	0.00000000000000	0.08432900000000	0.00000000000000	0.00000000000000	0.00000000000000	0.00000000000000	0.00000000000000	0.00000000000000	0.00000000000000	20.39058700000000	0.00000000000000	0.00000000000000	0.00000000000000	0.00000000000000	
6.15164000000000	60.94389800000000	790.75146099999995	56.03460600000000	0.28192100000000	0.00000000000000	0.08428900000000	0.00000000000000	0.00000000000000	0.00000000000000	0.00000000000000	0.00000000000000	0.00000000000000	0.00000000000000	20.40328500000000	0.00000000000000	0.00000000000000	0.00000000000000	0.00000000000000	
6.15331000000000	60.45674600000000	792.86641899999995	56.11208500000000	0.28125600000000	0.00000000000000	0.08424900000000	0.00000000000000	0.00000000000000	0.00000000000000	0.00000000000000	0.00000000000000	0.00000000000000	0.00000000000000	20.41344800000000	0.00000000000000	0.00000000000000	0.00000000000000	0.00000000000000	
6.15497400000000	59.96175700000000	794.81133899999998	56.18176700000000	0.28058300000000	0.00000000000000	0.08420900000000	0.00000000000000	0.00000000000000	0.00000000000000	0.00000000000000	0.00000000000000	0.00000000000000	0.00000000000000	20.42096900000000	0.00000000000000	0.00000000000000	0.00000000000000	0.00000000000000	
6.15664200000000	59.45937900000000	796.58620099999996	56.24342500000000	0.27990100000000	0.00000000000000	0.08417000000000	0.00000000000000	0.00000000000000	0.00000000000000	0.00000000000000	0.00000000000000	0.00000000000000	0.00000000000000	20.42572400000000	0.00000000000000	0.00000000000000	0.00000000000000	0.00000000000000	
6.15830700000000	58.95004000000000	798.19121600000005	56.29679800000000	0.27920700000000	0.00000000000000	0.08413200000000	0.00000000000000	0.00000000000000	0.00000000000000	0.00000000000000	0.00000000000000	0.00000000000000	0.00000000000000	20.42756900000000	0.00000000000000	0.00000000000000	0.00000000000000	0.00000000000000	
6.15997600000000	58.43415100000000	799.62683000000004	56.34159700000000	0.27850200000000	0.00000000000000	0.08409400000000	0.00000000000000	0.00000000000000	0.00000000000000	0.00000000000000	0.00000000000000	0.00000000000000	0.00000000000000	20.42634900000000	0.00000000000000	0.00000000000000	0.00000000000000	0.00000000000000	
6.16164200000000	57.91210900000000	800.89372800000001	56.37751100000000	0.27778300000000	0.00000000000000	0.08405700000000	0.00000000000000	0.00000000000000	0.00000000000000	0.00000000000000	0.00000000000000	0.00000000000000	0.00000000000000	20.42189700000000	0.00000000000000	0.00000000000000	0.00000000000000	0.00000000000000	
6.16330800000000	57.38430000000000	801.99283600000001	56.40421200000000	0.27705200000000	0.00000000000000	0.08402100000000	0.00000000000000	0.00000000000000	0.00000000000000	0.00000000000000	0.00000000000000	0.00000000000000	0.00000000000000	20.41403900000000	0.00000000000000	0.00000000000000	0.00000000000000	0.00000000000000	
6.16497200000000	56.85109800000000	802.92532200000005	56.42136200000000	0.27630500000000	0.00000000000000	0.08398500000000	0.00000000000000	0.00000000000000	0.00000000000000	0.00000000000000	0.00000000000000	0.00000000000000	0.00000000000000	20.40259500000000	0.00000000000000	0.00000000000000	0.00000000000000	0.00000000000000	
6.16664400000000	56.31286500000000	803.69259799999998	56.42861400000000	0.27554400000000	0.00000000000000	0.08395100000000	0.00000000000000	0.00000000000000	0.00000000000000	0.00000000000000	0.00000000000000	0.00000000000000	0.00000000000000	20.38738300000000	0.00000000000000	0.00000000000000	0.00000000000000	0.00000000000000	
6.16830700000000	55.76995800000000	804.29632400000003	56.42562100000000	0.27476700000000	0.00000000000000	0.08391700000000	0.00000000000000	0.00000000000000	0.00000000000000	0.00000000000000	0.00000000000000	0.00000000000000	0.00000000000000	20.36821900000000	0.00000000000000	0.00000000000000	0.00000000000000	0.00000000000000	
6.16997600000000	55.22272800000000	804.73839899999996	56.41204000000000	0.27397300000000	0.00000000000000	0.08388300000000	0.00000000000000	0.00000000000000	0.00000000000000	0.00000000000000	0.00000000000000	0.00000000000000	0.00000000000000	20.34492700000000	0.00000000000000	0.00000000000000	0.00000000000000	0.00000000000000	
6.17164000000000	54.67151900000000	805.02096800000004	56.38753600000000	0.27316300000000	0.00000000000000	0.08385100000000	0.00000000000000	0.00000000000000	0.00000000000000	0.00000000000000	0.00000000000000	0.00000000000000	0.00000000000000	20.31733100000000	0.00000000000000	0.00000000000000	0.00000000000000	0.00000000000000	
6.17331000000000	54.11667300000000	805.14641500000005	56.35178900000000	0.27233500000000	0.00000000000000	0.08381900000000	0.00000000000000	0.00000000000000	0.00000000000000	0.00000000000000	0.00000000000000	0.00000000000000	0.00000000000000	20.28526600000000	0.00000000000000	0.00000000000000	0.00000000000000	0.00000000000000	
6.17497900000000	53.55852900000000	805.11736299999995	56.30449600000000	0.27149100000000	0.00000000000000	0.08378800000000	0.00000000000000	0.00000000000000	0.00000000000000	0.00000000000000	0.00000000000000	0.00000000000000	0.00000000000000	20.24857700000000	0.00000000000000	0.00000000000000	0.00000000000000	0.00000000000000	
6.17663900000000	52.99742600000000	804.93666700000006	56.24537600000000	0.27062800000000	0.00000000000000	0.08375700000000	0.00000000000000	0.00000000000000	0.00000000000000	0.00000000000000	0.00000000000000	0.00000000000000	0.00000000000000	20.20712200000000	0.00000000000000	0.00000000000000	0.00000000000000	0.00000000000000	
6.17831300000000	52.43370300000000	804.60741099999996	56.17417700000000	0.26974800000000	0.00000000000000	0.08372700000000	0.00000000000000	0.00000000000000	0.00000000000000	0.00000000000000	0.00000000000000	0.00000000000000	0.00000000000000	20.16077100000000	0.00000000000000	0.00000000000000	0.00000000000000	0.00000000000000	
6.17997800000000	51.86769800000000	804.13290400000005	56.09067400000000	0.26885000000000	0.00000000000000	0.08369800000000	0.00000000000000	0.00000000000000	0.00000000000000	0.00000000000000	0.00000000000000	0.00000000000000	0.00000000000000	20.10941400000000	0.00000000000000	0.00000000000000	0.00000000000000	0.00000000000000	
6.18163800000000	51.29975300000000	803.51667299999997	55.99467800000000	0.26793500000000	0.00000000000000	0.08366900000000	0.00000000000000	0.00000000000000	0.00000000000000	0.00000000000000	0.00000000000000	0.00000000000000	0.00000000000000	20.05295600000000	0.00000000000000	0.00000000000000	0.00000000000000	0.00000000000000	
6.18331800000000	50.73021200000000	802.76245300000005	55.88603400000000	0.26700300000000	0.00000000000000	0.08364100000000	0.00000000000000	0.00000000000000	0.00000000000000	0.00000000000000	0.00000000000000	0.00000000000000	0.00000000000000	19.99132300000000	0.00000000000000	0.00000000000000	0.00000000000000	0.00000000000000	
6.18497700000000	50.15942000000000	801.87418500000001	55.76462800000000	0.26605400000000	0.00000000000000	0.08361300000000	0.00000000000000	0.00000000000000	0.00000000000000	0.00000000000000	0.00000000000000	0.00000000000000	0.00000000000000	19.92446000000000	0.00000000000000	0.00000000000000	0.00000000000000	0.00000000000000	
6.18664200000000	49.58772600000000	800.85600599999998	55.63038800000000	0.26508800000000	0.00000000000000	0.08358600000000	0.00000000000000	0.00000000000000	0.00000000000000	0.00000000000000	0.00000000000000	0.00000000000000	0.00000000000000	19.85233500000000	0.00000000000000	0.00000000000000	0.00000000000000	0.00000000000000	
6.18830600000000	49.01548400000000	799.71223599999996	55.48328200000000	0.26410600000000	0.00000000000000	0.08355800000000	0.00000000000000	0.00000000000000	0.00000000000000	0.00000000000000	0.00000000000000	0.00000000000000	0.00000000000000	19.77493800000000	0.00000000000000	0.00000000000000	0.00000000000000	0.00000000000000	
6.18997900000000	48.44304800000000	798.44737399999997	55.32332600000000	0.26310900000000	0.00000000000000	0.08353100000000	0.00000000000000	0.00000000000000	0.00000000000000	0.00000000000000	0.00000000000000	0.00000000000000	0.00000000000000	19.69228000000000	0.00000000000000	0.00000000000000	0.00000000000000	0.00000000000000	
6.19164000000000	47.87077800000000	797.06608800000004	55.15058000000000	0.26209800000000	0.00000000000000	0.08350500000000	0.00000000000000	0.00000000000000	0.00000000000000	0.00000000000000	0.00000000000000	0.00000000000000	0.00000000000000	19.60439900000000	0.00000000000000	0.00000000000000	0.00000000000000	0.00000000000000	
6.19331100000000	47.29903600000000	795.57320000000004	54.96515100000000	0.26107300000000	0.00000000000000	0.08347800000000	0.00000000000000	0.00000000000000	0.00000000000000	0.00000000000000	0.00000000000000	0.00000000000000	0.00000000000000	19.51135300000000	0.00000000000000	0.00000000000000	0.00000000000000	0.00000000000000	
6.19497300000000	46.72818600000000	793.97367999999994	54.76719300000000	0.26003400000000	0.00000000000000	0.08345100000000	0.00000000000000	0.00000000000000	0.00000000000000	0.00000000000000	0.00000000000000	0.00000000000000	0.00000000000000	19.41322400000000	0.00000000000000	0.00000000000000	0.00000000000000	0.00000000000000	
6.19664600000000	46.15859500000000	792.27263200000004	54.55690700000000	0.25898400000000	0.00000000000000	0.08342500000000	0.00000000000000	0.00000000000000	0.00000000000000	0.00000000000000	0.00000000000000	0.00000000000000	0.00000000000000	19.31011700000000	0.00000000000000	0.00000000000000	0.00000000000000	0.00000000000000	
